# xmcd
#
# Track frame offsets: 
#        150
#        16737
#        32437
#
# Disc length: 644 seconds
#
# Revision: 3
# Processed by: cddbd v1.5.2PL0 Copyright (c) Steve Scherf et al.
# Submitted via: ExactAudioCopy v0.95b4
#
DISCID=12028203
DTITLE=C-Bra - Make Up Your Mind!
DYEAR=1998
DGENRE=Pop
TTITLE0=Make Up Your Mind!
TTITLE1=Toy Boy
TTITLE2=Tonight
EXTD=
EXTT0=
EXTT1=
EXTT2=
PLAYORDER=
